<svg id="Layer_1" data-name="Layer 1" xmlns="http://www.w3.org/2000/svg" viewBox="0 0 86 86"><defs><style>.cls-1,.cls-2{fill:#fff;}.cls-2{opacity:0.5;}</style></defs><title>logo</title><rect width="86" height="86" rx="12" ry="12"/><path class="cls-1" d="M47.58,72.25h6.26a1.86,1.86,0,0,0,1.32-3.16L30.8,44.56a1.86,1.86,0,0,1,0-2.62L55.16,17.41a1.86,1.86,0,0,0-1.32-3.16H49.56a1.86,1.86,0,0,0-1.32.55L20.3,42.94a1.86,1.86,0,0,0,0,2.62l26,26.14A1.86,1.86,0,0,0,47.58,72.25Z"/><path class="cls-1" d="M65.84,63.63h3.32a1.66,1.66,0,0,0,1.18-2.83L54.27,44.63a1.66,1.66,0,0,1,0-2.34L70.33,26.12a1.66,1.66,0,0,0-1.18-2.83H67.22a1.66,1.66,0,0,0-1.18.49L47,43a1.66,1.66,0,0,0,0,2.34L64.66,63.14A1.66,1.66,0,0,0,65.84,63.63Z"/><rect class="cls-2" x="19.5" y="13.25" width="6" height="60" rx="3" ry="3"/><rect class="cls-2" x="46" y="22.46" width="6" height="42" rx="3" ry="3"/></svg>